Coordinates
version=1
nRows=13
nColumns=40
inDegrees=yes

Units are S.I. units (second, meters, Newtons, ...)
If the header above contains a line with 'inDegrees', this indicates whether rotational values are in degrees (yes) or radians (no).

endheader
time	pelvis_tilt	pelvis_list	pelvis_rotation	pelvis_tx	pelvis_ty	pelvis_tz	hip_flexion_r	hip_adduction_r	hip_rotation_r	knee_angle_r	knee_angle_r_beta	ankle_angle_r	subtalar_angle_r	mtp_angle_r	hip_flexion_l	hip_adduction_l	hip_rotation_l	knee_angle_l	knee_angle_l_beta	ankle_angle_l	subtalar_angle_l	mtp_angle_l	lumbar_extension	lumbar_bending	lumbar_rotation	arm_flex_r	arm_add_r	arm_rot_r	elbow_flex_r	pro_sup_r	wrist_flex_r	wrist_dev_r	arm_flex_l	arm_add_l	arm_rot_l	elbow_flex_l	pro_sup_l	wrist_flex_l	wrist_dev_l
      0.00000000	     15.69965362	      2.34095004	     -0.45366324	      0.08163929	      0.94933602	     -0.31485283	     11.56179239	     -2.57974407	     -3.74518410	      9.26000339	      0.16161755	    -11.21833324	      0.00000000	      0.00000000	    -29.34903979	      4.40262692	      1.15058923	     14.36802446	      0.25076933	     -1.54348103	      0.00000000	      0.00000000	    -31.23400109	     -1.94481540	     -7.78496940	      4.10096686	    -13.35625677	      6.59062498	     35.26984457	     75.72496555	      0.00000000	      0.00000000	     13.35504429	    -26.01352018	     26.14228434	     55.92282518	     65.25788725	      0.00000000	      0.00000000
      0.00400000	     15.58166094	      2.36175201	     -0.48786895	      0.08721951	      0.94818490	     -0.31471353	     11.92418233	     -2.55575613	     -3.75648101	      9.21270016	      0.16079195	    -11.21408329	      0.00000000	      0.00000000	    -29.42945230	      4.40817741	      1.26288791	     14.65139588	      0.25571510	     -1.65795417	      0.00000000	      0.00000000	    -31.10795345	     -1.94996390	     -7.71649535	      4.04418786	    -13.29240231	      6.70841489	     35.22233018	     75.79011983	      0.00000000	      0.00000000	     13.42782160	    -25.91392583	     26.13685313	     55.97554274	     65.25038170	      0.00000000	      0.00000000
      0.00800000	     15.48643388	      2.46021054	     -0.59550810	      0.09233120	      0.94708442	     -0.31463020	     12.33344827	     -2.61456715	     -3.63209419	      9.28174466	      0.16199700	    -11.26337944	      0.00000000	      0.00000000	    -29.42895951	      4.52789288	      1.32347610	     15.11327310	      0.26377638	     -1.73034879	      0.00000000	      0.00000000	    -31.05069420	     -2.04199824	     -7.71754976	      4.17455098	    -13.32945897	      6.59775597	     35.00192717	     75.76485381	      0.00000000	      0.00000000	     13.51151084	    -25.84272748	     26.10282812	     55.95557835	     65.20939269	      0.00000000	      0.00000000
      0.01200000	     15.33437936	      2.51720987	     -0.49142053	      0.09847935	      0.94591690	     -0.31450511	     12.63416932	     -2.67724553	     -3.57493389	      9.30284360	      0.16236525	    -11.23762999	      0.00000000	      0.00000000	    -29.49047582	      4.47815465	      1.37200634	     15.42548976	      0.26922559	     -1.81727756	      0.00000000	      0.00000000	    -30.82957313	     -2.03161594	     -7.80609742	      4.07236946	    -13.27631667	      6.57853070	     34.87594118	     75.75940264	      0.00000000	      0.00000000	     13.47522767	    -25.77125289	     26.13038857	     55.95937216	     65.19479314	      0.00000000	      0.00000000
      0.01600000	     15.34959404	      2.72128813	     -0.25239708	      0.10384021	      0.94504243	     -0.31447162	     12.94184633	     -2.93970655	     -4.04148694	      9.74268018	      0.17004185	    -10.80343804	      0.00000000	      0.00000000	    -29.45387888	      4.48380970	      1.58592592	     16.19233477	      0.28260956	     -1.82382683	      0.00000000	      0.00000000	    -30.84914523	     -2.11193658	     -8.17317626	      4.24896789	    -13.06261071	      6.77187303	     34.47198989	     76.09558917	      0.00000000	      0.00000000	     13.58248279	    -25.85016029	     26.22859978	     55.90373557	     65.07013757	      0.00000000	      0.00000000
      0.02000000	     15.21439717	      2.74595454	     -0.16491783	      0.10991277	      0.94395421	     -0.31461928	     13.19473185	     -2.98218373	     -3.97716332	      9.81334602	      0.17127520	    -10.84291947	      0.00000000	      0.00000000	    -29.53418425	      4.44431843	      1.72963503	     16.49450019	      0.28788334	     -1.96898060	      0.00000000	      0.00000000	    -30.66119026	     -2.05052057	     -8.23361709	      4.16418197	    -13.14527801	      6.67219842	     34.34640986	     76.07003298	      0.00000000	      0.00000000	     13.52375421	    -25.73502966	     26.23857733	     55.96739796	     65.05648352	      0.00000000	      0.00000000
      0.02400000	     15.20166600	      2.90279963	      0.01830498	      0.11514735	      0.94309003	     -0.31466674	     13.55111302	     -3.22252351	     -4.22724020	     10.37781506	      0.18112704	    -10.71814495	      0.00000000	      0.00000000	    -29.51818583	      4.45262360	      2.01927829	     17.15225629	      0.29936335	     -2.06200186	      0.00000000	      0.00000000	    -30.71367465	     -2.08701143	     -8.47658198	      4.32116127	    -12.97329792	      6.37072622	     34.05796725	     75.90599112	      0.00000000	      0.00000000	     13.62313198	    -25.70773893	     26.12311581	     55.95395579	     64.93157231	      0.00000000	      0.00000000
      0.02800000	     15.07607239	      2.92177963	      0.02447493	      0.12113367	      0.94204920	     -0.31433434	     13.78771539	     -3.22383847	     -4.11492271	     10.52911145	      0.18376766	    -10.76503049	      0.00000000	      0.00000000	    -29.57544850	      4.42562506	      2.15790196	     17.48667764	      0.30520010	     -2.22559993	      0.00000000	      0.00000000	    -30.54164038	     -2.08662596	     -8.46290295	      4.21698207	    -12.87694292	      6.46060913	     34.02387755	     75.95018028	      0.00000000	      0.00000000	     13.56607939	    -25.66427483	     26.17407191	     55.99668936	     64.91574324	      0.00000000	      0.00000000
      0.03200000	     14.99394395	      3.14008714	      0.35168031	      0.12697751	      0.94100151	     -0.31470821	     14.34319548	     -3.61412411	     -4.79777719	     11.65722891	      0.20345703	    -10.01742177	      0.00000000	      0.00000000	    -29.53325846	      4.42333199	      2.50090703	     18.12218952	      0.31629187	     -2.49255678	      0.00000000	      0.00000000	    -30.43752284	     -2.11286979	     -8.87052755	      4.29387680	    -12.84304443	      6.38689177	     33.73849131	     75.80640645	      0.00000000	      0.00000000	     13.55123503	    -25.69892710	     26.26157270	     56.09782349	     64.66958220	      0.00000000	      0.00000000
      0.03600000	     14.97083499	      3.24592732	      0.30712469	      0.13251156	      0.94022225	     -0.31444406	     14.58806132	     -3.72762627	     -4.58290755	     12.12194219	      0.21156780	    -10.11931560	      0.00000000	      0.00000000	    -29.56199493	      4.49421744	      2.56730808	     18.65464367	      0.32558495	     -2.81257952	      0.00000000	      0.00000000	    -30.43599314	     -2.20220585	     -8.87288543	      4.33905371	    -12.75786976	      6.34145706	     33.57953392	     75.64637375	      0.00000000	      0.00000000	     13.59346765	    -25.65297436	     26.23007061	     56.10925976	     64.57646028	      0.00000000	      0.00000000
      0.04000000	     14.86152286	      3.38070363	      0.44532668	      0.13861790	      0.93926880	     -0.31453311	     14.95264166	     -3.95054895	     -4.73576848	     12.85407572	      0.22434594	     -9.85093576	      0.00000000	      0.00000000	    -29.56451276	      4.52377926	      2.86537470	     19.11579574	      0.33363357	     -3.10666196	      0.00000000	      0.00000000	    -30.27401699	     -2.23346425	     -9.06170071	      4.33505679	    -12.73980630	      6.38255786	     33.40781104	     75.58430349	      0.00000000	      0.00000000	     13.49984506	    -25.60696415	     26.23833251	     56.14489974	     64.40273601	      0.00000000	      0.00000000
      0.04400000	     14.71122449	      3.38551067	      0.58856273	      0.14516043	      0.93840481	     -0.31458622	     15.07274694	     -3.98804958	     -4.62002069	     13.06087717	      0.22795531	     -9.89851905	      0.00000000	      0.00000000	    -29.60632981	      4.41053063	      3.07732023	     19.45963826	      0.33963476	     -3.35740918	      0.00000000	      0.00000000	    -30.03100223	     -2.13797612	     -9.12818136	      4.16432204	    -12.71229062	      6.37824887	     33.31704960	     75.55055973	      0.00000000	      0.00000000	     13.37277131	    -25.49783913	     26.26059631	     56.14656815	     64.39093850	      0.00000000	      0.00000000
      0.04800000	     14.70084110	      3.57044427	      0.76845769	      0.15070565	      0.93763540	     -0.31470849	     15.49222120	     -4.30335572	     -5.00410705	     14.20607005	      0.24794270	     -9.51704448	      0.00000000	      0.00000000	    -29.59555888	      4.47122523	      3.46170488	     20.05947526	      0.35010389	     -3.82055343	      0.00000000	      0.00000000	    -30.04342433	     -2.18840012	     -9.41738278	      4.30540783	    -12.67856727	      6.49876018	     33.14941960	     75.43954250	      0.00000000	      0.00000000	     13.38259487	    -25.50992552	     26.24393621	     56.18212593	     64.22070446	      0.00000000	      0.00000000
